<?xml version="1.0" encoding="UTF-8"?>
<svg width="32" height="32" viewBox="0 0 32 32" fill="none" xmlns="http://www.w3.org/2000/svg">
  <style>
    .clipboard-body { fill: #2196F3; }
    .clipboard-top { fill: #1976D2; }
    .clipboard-content { fill: #ffffff; }
    @media (prefers-color-scheme: dark) {
      .clipboard-body, .clipboard-top { fill: #2196F3; }
      .clipboard-content { fill: #ffffff; }
    }
  </style>
  <path class="clipboard-body" d="M8 7C8 5.89543 8.89543 5 10 5H22C23.1046 5 24 5.89543 24 7V27C24 28.1046 23.1046 29 22 29H10C8.89543 29 8 28.1046 8 27V7Z" />
  <path class="clipboard-top" d="M10 2C10 1.44772 10.4477 1 11 1H21C21.5523 1 22 1.44772 22 2V4C22 4.55228 21.5523 5 21 5H11C10.4477 5 10 4.55228 10 4V2Z" />
  <text class="clipboard-content" x="11.5" y="20" font-family="Arial" font-weight="bold" font-size="12">CP</text>
</svg>