<?xml version="1.0" encoding="UTF-8"?>
<svg width="48" height="48" viewBox="0 0 48 48" fill="none" xmlns="http://www.w3.org/2000/svg">
  <defs>
    <linearGradient id="clipboard-gradient" x1="0" y1="0" x2="48" y2="48" gradientUnits="userSpaceOnUse">
      <stop offset="0%" stop-color="#4A90E2"/>
      <stop offset="100%" stop-color="#9B51E0"/>
    </linearGradient>
    <filter id="shadow" x="-2" y="-1" width="52" height="52" filterUnits="userSpaceOnUse">
      <feDropShadow dx="0" dy="2" stdDeviation="2" flood-opacity="0.25"/>
    </filter>
  </defs>
  <style>
    .icon-base { fill: url(#clipboard-gradient); filter: url(#shadow); }
    @media (prefers-color-scheme: dark) {
      .icon-base { fill: url(#clipboard-gradient); }
    }
  </style>
  <g transform="translate(24 24)">
    <path class="icon-base" d="M0 -20C11 -20 20 -11 20 0C20 11 11 20 0 20C-11 20 -20 11 -20 0C-20 -11 -11 -20 0 -20Z">
      <animate attributeName="d" dur="0.3s" begin="mouseover" fill="freeze"
        to="M0 -22C12 -22 22 -12 22 0C22 12 12 22 0 22C-12 22 -22 12 -22 0C-22 -12 -12 -22 0 -22Z"/>
      <animate attributeName="d" dur="0.3s" begin="mouseout" fill="freeze"
        to="M0 -20C11 -20 20 -11 20 0C20 11 11 20 0 20C-11 20 -20 11 -20 0C-20 -11 -11 -20 0 -20Z"/>
    </path>
    <!-- Stylized C -->
    <path d="M4 -8C2 -10 -0.5 -11 -3 -11C-8.3 -11 -12.5 -6.8 -12.5 -1.5C-12.5 3.8 -8.3 8 -3 8C-0.5 8 2 7 4 5" 
          stroke="white" stroke-width="3" stroke-linecap="round" fill="none"/>
    <!-- Stylized P -->
    <path d="M6 -11V8M6 -11C6 -11 11 -11 11 -6.5C11 -2 6 -2 6 -2" 
          stroke="white" stroke-width="4" stroke-linecap="round" stroke-linejoin="round" fill="none"/>
  </g>
</svg>